# Rhino

o Cube_2
v -1123.473999023438 -1074.716430664062 2885.496826171875
v -1123.473999023438 -1074.716430664062 2885.496826171875
v -1123.473999023438 -1074.716430664062 2885.496826171875
v -1123.473999023438 1925.283569335938 2885.496826171875
v -1123.473999023438 1925.283569335938 2885.496826171875
v -1123.473999023438 1925.283569335938 2885.496826171875
v -1010.289184570312 -1074.716430664062 2885.496826171875
v -1010.289184570312 -1074.716430664062 2885.496826171875
v -1010.289184570312 -1074.716430664062 2885.496826171875
v -1010.289184570312 1925.283569335938 2885.496826171875
v -1010.289184570312 1925.283569335938 2885.496826171875
v -1010.289184570312 1925.283569335938 2885.496826171875
v -1010.289184570312 -1074.716430664062 -923.8135375976562
v -1010.289184570312 -1074.716430664062 -923.8135375976562
v -1010.289184570312 -1074.716430664062 -923.8135375976562
v -1010.289184570312 1925.283569335938 -923.8135375976562
v -1010.289184570312 1925.283569335938 -923.8135375976562
v -1010.289184570312 1925.283569335938 -923.8135375976562
v -1123.473999023438 -1074.716430664062 -923.8135375976562
v -1123.473999023438 -1074.716430664062 -923.8135375976562
v -1123.473999023438 -1074.716430664062 -923.8135375976562
v -1123.473999023438 1925.283569335938 -923.8135375976562
v -1123.473999023438 1925.283569335938 -923.8135375976562
v -1123.473999023438 1925.283569335938 -923.8135375976562
v -1010.289184570312 433.9984741210938 984.9776000976562
v -1010.289184570312 311.6529846191406 984.9776000976562
v -1010.289184570312 433.9984741210938 57.57942962646484
v -1010.289184570312 311.6529846191406 57.57942962646484
v -1010.289184570312 133.2769012451172 208.7551727294922
v -1010.289184570312 18.54279708862305 208.7551727294922
v -1010.289184570312 133.2769012451172 50.42211151123047
v -1010.289184570312 18.54279708862305 50.42211151123047
v -1010.289184570312 262.1275634765625 208.7551727294922
v -1010.289184570312 147.3934631347656 208.7551727294922
v -1010.289184570312 262.1275634765625 50.42211151123047
v -1010.289184570312 147.3934631347656 50.42211151123047
v -1010.289184570312 263.0014953613281 985.116943359375
v -1010.289184570312 146.51953125 985.116943359375
v -1010.289184570312 263.0014953613281 824.3718872070312
v -1010.289184570312 146.51953125 824.3718872070312
v -1010.289184570312 134.1508331298828 985.116943359375
v -1010.289184570312 17.66886901855469 985.116943359375
v -1010.289184570312 134.1508331298828 824.3718872070312
v -1010.289184570312 17.66886901855469 824.3718872070312
v -1123.473999023438 433.9984741210938 984.9776000976562
v -1123.473999023438 311.6529846191406 984.9776000976562
v -1123.473999023438 433.9984741210938 57.57942962646484
v -1123.473999023438 311.6529846191406 57.57942962646484
v -1123.473999023438 133.2769012451172 208.7551727294922
v -1123.473999023438 18.54279708862305 208.7551727294922
v -1123.473999023438 133.2769012451172 50.42211151123047
v -1123.473999023438 18.54279708862305 50.42211151123047
v -1123.473999023438 262.1275634765625 208.7551727294922
v -1123.473999023438 147.3934631347656 208.7551727294922
v -1123.473999023438 262.1275634765625 50.42211151123047
v -1123.473999023438 147.3934631347656 50.42211151123047
v -1123.473999023438 263.0014953613281 985.116943359375
v -1123.473999023438 146.51953125 985.116943359375
v -1123.473999023438 263.0014953613281 824.3718872070312
v -1123.473999023438 146.51953125 824.3718872070312
v -1123.473999023438 134.1508331298828 985.116943359375
v -1123.473999023438 17.66886901855469 985.116943359375
v -1123.473999023438 134.1508331298828 824.3718872070312
v -1123.473999023438 17.66886901855469 824.3718872070312
vn 1 0 0
vn 0 0 -1
vn 0 1 0
vn 1 0 0
vn 0 0 -1
vn 0 -1 0
vn -1 0 0
vn 0 0 -1
vn 0 1 0
vn -1 0 0
vn 0 0 -1
vn 0 -1 0
vn -1 0 0
vn 0 0 1
vn 0 1 0
vn -1 0 0
vn 0 0 1
vn 0 -1 0
vn 0 0 1
vn 1 0 0
vn 0 1 0
vn 0 0 1
vn 1 0 0
vn 0 -1 0
vn -1 0 0
vn -1 0 0
vn -1 0 0
vn -1 0 0
vn -1 0 0
vn -1 0 0
vn -1 0 0
vn -1 0 0
vn -1 0 0
vn -1 0 0
vn -1 0 0
vn -1 0 0
vn -1 0 0
vn -1 0 0
vn -1 0 0
vn -1 0 0
vn -1 0 0
vn -1 0 0
vn -1 0 0
vn -1 0 0
vn 1 0 0
vn 1 0 0
vn 1 0 0
vn 1 0 0
vn 1 0 0
vn 1 0 0
vn 1 0 0
vn 1 0 0
vn 1 0 0
vn 1 0 0
vn 1 0 0
vn 1 0 0
vn 1 0 0
vn 1 0 0
vn 1 0 0
vn 1 0 0
vn 1 0 0
vn 1 0 0
vn 1 0 0
vn 1 0 0
f 8//8 2//2 5//5 11//11
f 31//31 34//34 36//36
f 38//38 40//40 43//43 41//41
f 29//29 30//30 44//44 43//43
f 26//26 28//28 35//35 33//33
f 13//13 30//30 32//32
f 16//16 35//35 28//28
f 16//16 31//31 36//36
f 7//7 44//44 30//30 13//13
f 31//31 16//16 13//13 32//32
f 39//39 26//26 33//33
f 40//40 29//29 43//43
f 7//7 42//42 44//44
f 35//35 16//16 36//36
f 7//7 38//38 41//41
f 40//40 34//34 31//31 29//29
f 27//27 16//16 28//28
f 33//33 34//34 40//40 39//39
f 7//7 41//41 42//42
f 25//25 10//10 16//16 27//27
f 10//10 37//37 38//38 7//7
f 26//26 10//10 25//25
f 37//37 26//26 39//39
f 26//26 37//37 10//10
f 19//19 14//14 17//17 22//22
f 61//61 60//60 58//58
f 56//56 54//54 49//49 51//51
f 49//49 64//64 50//50
f 48//48 46//46 57//57 59//59
f 4//4 1//1 62//62 61//61
f 4//4 57//57 46//46
f 20//20 52//52 50//50
f 4//4 61//61 58//58
f 54//54 63//63 64//64 49//49
f 64//64 62//62 1//1 20//20
f 54//54 60//60 61//61 63//63
f 53//53 48//48 59//59
f 20//20 50//50 64//64
f 20//20 56//56 51//51
f 20//20 51//51 52//52
f 55//55 56//56 20//20 23//23
f 53//53 59//59 60//60 54//54
f 55//55 48//48 53//53
f 23//23 48//48 55//55
f 23//23 47//47 48//48
f 4//4 45//45 47//47 23//23
f 4//4 46//46 45//45
f 57//57 4//4 58//58
f 12//12 6//6 24//24 18//18
f 15//15 21//21 3//3 9//9
