# Rhino

o Cube_1_34
v -1678.842407226562 -1069.58544921875 1280.469970703125
v -1678.842407226562 -1069.58544921875 1280.469970703125
v -1678.842407226562 -1069.58544921875 1280.469970703125
v -1678.842407226562 1930.41455078125 1280.469970703125
v -1678.842407226562 1930.41455078125 1280.469970703125
v -1678.842407226562 1930.41455078125 1280.469970703125
v -1678.842407226562 -1069.58544921875 1300.469970703125
v -1678.842407226562 -1069.58544921875 1300.469970703125
v -1678.842407226562 -1069.58544921875 1300.469970703125
v -1678.842407226562 1930.41455078125 1300.469970703125
v -1678.842407226562 1930.41455078125 1300.469970703125
v -1678.842407226562 1930.41455078125 1300.469970703125
v 1321.157592773438 -1069.58544921875 1300.469970703125
v 1321.157592773438 -1069.58544921875 1300.469970703125
v 1321.157592773438 -1069.58544921875 1300.469970703125
v 1321.157592773438 1930.41455078125 1300.469970703125
v 1321.157592773438 1930.41455078125 1300.469970703125
v 1321.157592773438 1930.41455078125 1300.469970703125
v 1321.157592773438 -1069.58544921875 1280.469970703125
v 1321.157592773438 -1069.58544921875 1280.469970703125
v 1321.157592773438 -1069.58544921875 1280.469970703125
v 1321.157592773438 1930.41455078125 1280.469970703125
v 1321.157592773438 1930.41455078125 1280.469970703125
v 1321.157592773438 1930.41455078125 1280.469970703125
v -25.3462963104248 465.5550842285156 1300.469970703125
v -25.3462963104248 20.56842994689941 1300.469970703125
v -697.8775024414062 465.5550842285156 1300.469970703125
v -697.8775024414062 20.56842994689941 1300.469970703125
v 894.1781616210938 465.5550842285156 1300.469970703125
v 894.1781616210938 20.56842994689941 1300.469970703125
v 221.6469268798828 465.5550842285156 1300.469970703125
v 221.6469268798828 20.56842994689941 1300.469970703125
v -25.3462963104248 465.5550842285156 1280.469970703125
v -25.3462963104248 20.56842994689941 1280.469970703125
v -697.8775024414062 465.5550842285156 1280.469970703125
v -697.8775024414062 20.56842994689941 1280.469970703125
v 894.1781616210938 465.5550842285156 1280.469970703125
v 894.1781616210938 20.56842994689941 1280.469970703125
v 221.6469268798828 465.5550842285156 1280.469970703125
v 221.6469268798828 20.56842994689941 1280.469970703125
vn 0 0 -1
vn -1 0 0
vn 0 -1 0
vn 0 0 -1
vn -1 0 0
vn 0 1 0
vn -1 0 0
vn 0 0 1
vn 0 -1 0
vn -1 0 0
vn 0 0 1
vn 0 1 0
vn 1 0 0
vn 0 0 1
vn 0 -1 0
vn 1 0 0
vn 0 0 1
vn 0 1 0
vn 1 0 0
vn 0 0 -1
vn 0 -1 0
vn 1 0 0
vn 0 0 -1
vn 0 1 0
vn 0 0 1
vn 0 0 1
vn 0 0 1
vn 0 0 1
vn 0 0 1
vn 0 0 1
vn 0 0 1
vn 0 0 1
vn 0 0 -1
vn 0 0 -1
vn 0 0 -1
vn 0 0 -1
vn 0 0 -1
vn 0 0 -1
vn 0 0 -1
vn 0 0 -1
f 7//7 10//10 5//5 2//2
f 32//32 8//8 14//14 30//30
f 17//17 29//29 30//30 14//14
f 25//25 26//26 32//32 31//31
f 31//31 29//29 17//17 11//11
f 8//8 32//32 26//26
f 8//8 26//26 28//28
f 27//27 11//11 8//8 28//28
f 11//11 27//27 25//25
f 25//25 31//31 11//11
f 19//19 22//22 16//16 13//13
f 1//1 36//36 34//34
f 4//4 35//35 36//36 1//1
f 1//1 34//34 40//40
f 33//33 39//39 40//40 34//34
f 20//20 1//1 40//40 38//38
f 33//33 35//35 4//4 23//23
f 39//39 33//33 23//23
f 37//37 23//23 20//20 38//38
f 37//37 39//39 23//23
f 12//12 18//18 24//24 6//6
f 15//15 9//9 3//3 21//21
o Cube_2
v -1123.473999023438 -1074.716430664062 2885.496826171875
v -1123.473999023438 -1074.716430664062 2885.496826171875
v -1123.473999023438 -1074.716430664062 2885.496826171875
v -1123.473999023438 1925.283569335938 2885.496826171875
v -1123.473999023438 1925.283569335938 2885.496826171875
v -1123.473999023438 1925.283569335938 2885.496826171875
v -1010.289184570312 -1074.716430664062 2885.496826171875
v -1010.289184570312 -1074.716430664062 2885.496826171875
v -1010.289184570312 -1074.716430664062 2885.496826171875
v -1010.289184570312 1925.283569335938 2885.496826171875
v -1010.289184570312 1925.283569335938 2885.496826171875
v -1010.289184570312 1925.283569335938 2885.496826171875
v -1010.289184570312 -1074.716430664062 -923.8135375976562
v -1010.289184570312 -1074.716430664062 -923.8135375976562
v -1010.289184570312 -1074.716430664062 -923.8135375976562
v -1010.289184570312 1925.283569335938 -923.8135375976562
v -1010.289184570312 1925.283569335938 -923.8135375976562
v -1010.289184570312 1925.283569335938 -923.8135375976562
v -1123.473999023438 -1074.716430664062 -923.8135375976562
v -1123.473999023438 -1074.716430664062 -923.8135375976562
v -1123.473999023438 -1074.716430664062 -923.8135375976562
v -1123.473999023438 1925.283569335938 -923.8135375976562
v -1123.473999023438 1925.283569335938 -923.8135375976562
v -1123.473999023438 1925.283569335938 -923.8135375976562
v -1010.289184570312 433.9984741210938 984.9776000976562
v -1010.289184570312 311.6529846191406 984.9776000976562
v -1010.289184570312 433.9984741210938 57.57942962646484
v -1010.289184570312 311.6529846191406 57.57942962646484
v -1010.289184570312 133.2769012451172 208.7551727294922
v -1010.289184570312 18.54279708862305 208.7551727294922
v -1010.289184570312 133.2769012451172 50.42211151123047
v -1010.289184570312 18.54279708862305 50.42211151123047
v -1010.289184570312 262.1275634765625 208.7551727294922
v -1010.289184570312 147.3934631347656 208.7551727294922
v -1010.289184570312 262.1275634765625 50.42211151123047
v -1010.289184570312 147.3934631347656 50.42211151123047
v -1010.289184570312 263.0014953613281 985.116943359375
v -1010.289184570312 146.51953125 985.116943359375
v -1010.289184570312 263.0014953613281 824.3718872070312
v -1010.289184570312 146.51953125 824.3718872070312
v -1010.289184570312 134.1508331298828 985.116943359375
v -1010.289184570312 17.66886901855469 985.116943359375
v -1010.289184570312 134.1508331298828 824.3718872070312
v -1010.289184570312 17.66886901855469 824.3718872070312
v -1123.473999023438 433.9984741210938 984.9776000976562
v -1123.473999023438 311.6529846191406 984.9776000976562
v -1123.473999023438 433.9984741210938 57.57942962646484
v -1123.473999023438 311.6529846191406 57.57942962646484
v -1123.473999023438 133.2769012451172 208.7551727294922
v -1123.473999023438 18.54279708862305 208.7551727294922
v -1123.473999023438 133.2769012451172 50.42211151123047
v -1123.473999023438 18.54279708862305 50.42211151123047
v -1123.473999023438 262.1275634765625 208.7551727294922
v -1123.473999023438 147.3934631347656 208.7551727294922
v -1123.473999023438 262.1275634765625 50.42211151123047
v -1123.473999023438 147.3934631347656 50.42211151123047
v -1123.473999023438 263.0014953613281 985.116943359375
v -1123.473999023438 146.51953125 985.116943359375
v -1123.473999023438 263.0014953613281 824.3718872070312
v -1123.473999023438 146.51953125 824.3718872070312
v -1123.473999023438 134.1508331298828 985.116943359375
v -1123.473999023438 17.66886901855469 985.116943359375
v -1123.473999023438 134.1508331298828 824.3718872070312
v -1123.473999023438 17.66886901855469 824.3718872070312
vn -1 0 0
vn 0 0 1
vn 0 -1 0
vn -1 0 0
vn 0 0 1
vn 0 1 0
vn 1 0 0
vn 0 0 1
vn 0 -1 0
vn 1 0 0
vn 0 0 1
vn 0 1 0
vn 1 0 0
vn 0 0 -1
vn 0 -1 0
vn 1 0 0
vn 0 0 -1
vn 0 1 0
vn 0 0 -1
vn -1 0 0
vn 0 -1 0
vn 0 0 -1
vn -1 0 0
vn 0 1 0
vn 1 0 0
vn 1 0 0
vn 1 0 0
vn 1 0 0
vn 1 0 0
vn 1 0 0
vn 1 0 0
vn 1 0 0
vn 1 0 0
vn 1 0 0
vn 1 0 0
vn 1 0 0
vn 1 0 0
vn 1 0 0
vn 1 0 0
vn 1 0 0
vn 1 0 0
vn 1 0 0
vn 1 0 0
vn 1 0 0
vn -1 0 0
vn -1 0 0
vn -1 0 0
vn -1 0 0
vn -1 0 0
vn -1 0 0
vn -1 0 0
vn -1 0 0
vn -1 0 0
vn -1 0 0
vn -1 0 0
vn -1 0 0
vn -1 0 0
vn -1 0 0
vn -1 0 0
vn -1 0 0
vn -1 0 0
vn -1 0 0
vn -1 0 0
vn -1 0 0
f 48//48 51//51 45//45 42//42
f 71//71 76//76 74//74
f 78//78 81//81 83//83 80//80
f 69//69 83//83 84//84 70//70
f 66//66 73//73 75//75 68//68
f 53//53 72//72 70//70
f 56//56 68//68 75//75
f 56//56 76//76 71//71
f 47//47 53//53 70//70 84//84
f 71//71 72//72 53//53 56//56
f 79//79 73//73 66//66
f 80//80 83//83 69//69
f 47//47 84//84 82//82
f 75//75 76//76 56//56
f 47//47 81//81 78//78
f 80//80 69//69 71//71 74//74
f 67//67 68//68 56//56
f 73//73 79//79 80//80 74//74
f 47//47 82//82 81//81
f 65//65 67//67 56//56 50//50
f 50//50 47//47 78//78 77//77
f 66//66 65//65 50//50
f 77//77 79//79 66//66
f 66//66 50//50 77//77
f 59//59 62//62 57//57 54//54
f 101//101 98//98 100//100
f 96//96 91//91 89//89 94//94
f 89//89 90//90 104//104
f 88//88 99//99 97//97 86//86
f 44//44 101//101 102//102 41//41
f 44//44 86//86 97//97
f 60//60 90//90 92//92
f 44//44 98//98 101//101
f 94//94 89//89 104//104 103//103
f 104//104 60//60 41//41 102//102
f 94//94 103//103 101//101 100//100
f 93//93 99//99 88//88
f 60//60 104//104 90//90
f 60//60 91//91 96//96
f 60//60 92//92 91//91
f 95//95 63//63 60//60 96//96
f 93//93 94//94 100//100 99//99
f 95//95 93//93 88//88
f 63//63 95//95 88//88
f 63//63 88//88 87//87
f 44//44 63//63 87//87 85//85
f 44//44 85//85 86//86
f 97//97 98//98 44//44
f 52//52 58//58 64//64 46//46
f 55//55 49//49 43//43 61//61
