# Rhino

o object_1
v 0.1543 43.4179 8.238200000000001
v 1.1383 43.2397 8.238200000000001
v 1.1238 43.1601 8.8529
v 0.1398 43.3383 8.8529
v 1.6467 46.0478 1.8303
v 1.9188 47.5504 7.7374
v 1.4268 47.6394 7.7374
v 1.1547 46.1369 1.8303
v 1.6368 45.9929 1.7253
v 1.1448 46.082 1.7253
v 1.6234 45.9188 1.6332
v 1.1314 46.0079 1.6332
v 1.115 45.9176 1.5577
v 1.607 45.8285 1.5577
v 1.0963 45.8145 1.5015
v 1.5883 45.7254 1.5015
v 1.0761 45.7026 1.4669
v 1.5681 45.6135 1.4669
v 1.055 45.5862 1.4553
v 1.547 45.4971 1.4553
v 1.0339 45.4698 1.4669
v 1.5259 45.3807 1.4669
v 1.0136 45.3578 1.5015
v 1.5056 45.2688 1.5015
v 0.995 45.2547 1.5577
v 1.487 45.1656 1.5577
v 0.9786 45.1644 1.6332
v 1.4706 45.0753 1.6332
v 1.4572 45.0013 1.7253
v 0.9651999999999999 45.0904 1.7253
v 1.4473 44.9464 1.8303
v 0.9553 45.0355 1.8303
v 1.1752 43.4438 7.7374
v 0.6832 43.5329 7.7374
v 1.1805 43.4732 7.6654
v 1.2478 43.8446 7.1735
v 1.4473 44.9464 1.8303
v 1.1752 43.4438 7.7374
v 1.3354 44.3286 6.796
v 1.4375 44.8922 6.5588
v 1.547 45.4971 6.4779
v 1.6467 46.0478 1.8303
v 1.6368 45.9929 1.7253
v 1.4572 45.0013 1.7253
v 1.6234 45.9188 1.6332
v 1.4706 45.0753 1.6332
v 1.607 45.8285 1.5577
v 1.487 45.1656 1.5577
v 1.5883 45.7254 1.5015
v 1.5056 45.2688 1.5015
v 1.5681 45.6135 1.4669
v 1.5259 45.3807 1.4669
v 1.547 45.4971 1.4553
v 1.6565 46.1019 6.5588
v 1.7586 46.6656 6.796
v 1.8462 47.1496 7.1735
v 1.9134 47.521 7.6654
v 1.9188 47.5504 7.7374
v 1.2968 44.1154 10.7434
v 0.3514 44.5068 10.9097
v 0.2638 44.0227 10.5322
v 1.2478 43.8446 10.5322
v 1.3354 44.3286 10.9097
v 0.9861 48.0123 8.8529
v 1.9701 47.8341 8.8529
v 1.9557 47.7545 9.467499999999999
v 0.9717 47.9326 9.467499999999999
v 0.4535 45.0704 11.1469
v 0.5629999999999999 45.6753 11.2279
v 1.547 45.4971 11.2279
v 1.4375 44.8922 11.1469
v 0.3514 44.5068 10.9097
v 1.3354 44.3286 10.9097
v 1.9134 47.521 10.0404
v 0.9294 47.6992 10.0404
v 1.8462 47.1496 10.5322
v 0.8622 47.3278 10.5322
v 0.7746 46.8438 10.9097
v 1.7586 46.6656 10.9097
v 0.6725 46.2801 11.1469
v 1.6565 46.1019 11.1469
v 0.1965 43.6514 10.0404
v 1.1805 43.4732 10.0404
v 1.1383 43.2397 9.467499999999999
v 0.1543 43.4179 9.467499999999999
v 1.1238 43.1601 8.8529
v 0.1398 43.3383 8.8529
v 0.2638 44.0227 10.5322
v 1.2478 43.8446 10.5322
v 1.4214 47.6101 7.6654
v 1.4268 47.6394 7.7374
v 0.9717 47.9326 8.238200000000001
v 0.9294 47.6992 7.6654
v 1.9188 47.5504 7.7374
v 1.9557 47.7545 8.238200000000001
v 1.3542 47.2387 7.1735
v 0.8622 47.3278 7.1735
v 1.8462 47.1496 7.1735
v 1.9134 47.521 7.6654
v 0.7746 46.8438 6.796
v 1.2666 46.7547 6.796
v 1.7586 46.6656 6.796
v 0.6725 46.2801 6.5588
v 1.1645 46.191 6.5588
v 1.6565 46.1019 6.5588
v 1.055 45.5862 6.4779
v 1.547 45.4971 6.4779
v 0.9455 44.9813 6.5588
v 1.4375 44.8922 6.5588
v 0.8434 44.4177 6.796
v 1.3354 44.3286 6.796
v 0.2638 44.0227 7.1735
v 0.7558 43.9337 7.1735
v 1.2478 43.8446 7.1735
v 0.3514 44.5068 6.796
v 0.6885 43.5623 7.6654
v 0.1965 43.6514 7.6654
v 1.1805 43.4732 7.6654
v 1.1383 43.2397 8.238200000000001
v 0.6832 43.5329 7.7374
v 0.1543 43.4179 8.238200000000001
v 1.1752 43.4438 7.7374
v 0.4535 45.0704 6.5588
v 0.5629999999999999 45.6753 6.4779
v 0.9861 48.0123 8.8529
v 1.9701 47.8341 8.8529
v 1.9557 47.7545 8.238200000000001
v 0.9717 47.9326 8.238200000000001
v 1.4375 44.8922 11.1469
v 1.7586 46.6656 10.9097
v 1.6565 46.1019 11.1469
v 1.547 45.4971 11.2279
v 1.3354 44.3286 10.9097
v 1.8462 47.1496 10.5322
v 1.2968 44.1154 10.7434
v 1.2478 43.8446 10.5322
v 1.1805 43.4732 10.0404
v 1.9134 47.521 10.0404
v 1.1383 43.2397 9.467499999999999
v 1.9557 47.7545 9.467499999999999
v 1.1238 43.1601 8.8529
v 1.9701 47.8341 8.8529
v 1.1383 43.2397 8.238200000000001
v 1.9557 47.7545 8.238200000000001
v 1.1752 43.4438 7.7374
v 1.9188 47.5504 7.7374
v 1.1805 43.4732 7.6654
v 1.9134 47.521 7.6654
v 1.2478 43.8446 7.1735
v 1.8462 47.1496 7.1735
v 1.3354 44.3286 6.796
v 1.7586 46.6656 6.796
v 1.4375 44.8922 6.5588
v 1.6565 46.1019 6.5588
v 1.547 45.4971 6.4779
v 1.4214 47.6101 7.6654
v 1.3542 47.2387 7.1735
v 1.1547 46.1369 1.8303
v 1.4268 47.6394 7.7374
v 1.2666 46.7547 6.796
v 1.1645 46.191 6.5588
v 1.055 45.5862 6.4779
v 0.9553 45.0355 1.8303
v 0.9455 44.9813 6.5588
v 0.8434 44.4177 6.796
v 0.7558 43.9337 7.1735
v 0.6885 43.5623 7.6654
v 0.6832 43.5329 7.7374
v 0.9651999999999999 45.0904 1.7253
v 1.1448 46.082 1.7253
v 0.9786 45.1644 1.6332
v 1.1314 46.0079 1.6332
v 0.995 45.2547 1.5577
v 1.115 45.9176 1.5577
v 1.0136 45.3578 1.5015
v 1.0963 45.8145 1.5015
v 1.0339 45.4698 1.4669
v 1.0761 45.7026 1.4669
v 1.055 45.5862 1.4553
vn -0.1748069822788239 -0.9651385545730591 -0.1948077827692032
vn -0.1748069822788239 -0.9651385545730591 -0.1948077827692032
vn -0.177794948220253 -0.981872022151947 0.06569813191890717
vn -0.177794948220253 -0.981872022151947 0.06569813191890717
vn 0.1660911589860916 0.9171512126922607 -0.3622807264328003
vn 0.1724962294101715 0.9526792168617249 -0.2502945363521576
vn 0.1724962294101715 0.9526792168617249 -0.2502945363521576
vn 0.1660911589860916 0.9171512126922607 -0.3622807264328003
vn 0.1483983099460602 0.8193907737731934 -0.5536937117576599
vn 0.1483983099460602 0.8193907737731934 -0.5536937117576599
vn 0.1261980980634689 0.6969894766807556 -0.7058893442153931
vn 0.1261980980634689 0.6969894766807556 -0.7058893442153931
vn 0.09920059889554977 0.5478032827377319 -0.8307049870491028
vn 0.09920059889554977 0.5478032827377319 -0.8307049870491028
vn 0.06830178201198578 0.3774098455905914 -0.9235240817070007
vn 0.06830178201198578 0.3774098455905914 -0.9235240817070007
vn 0.0347999781370163 0.1923998594284058 -0.980699360370636
vn 0.0347999781370163 0.1923998594284058 -0.980699360370636
vn 0 0 -1
vn 0 0 -1
vn -0.0347999781370163 -0.1923998594284058 -0.980699360370636
vn -0.0347999781370163 -0.1923998594284058 -0.980699360370636
vn -0.06830178201198578 -0.3774098455905914 -0.9235240817070007
vn -0.06830178201198578 -0.3774098455905914 -0.9235240817070007
vn -0.09920059889554977 -0.5478032827377319 -0.8307049870491028
vn -0.09920059889554977 -0.5478032827377319 -0.8307049870491028
vn -0.1261980980634689 -0.6969894766807556 -0.7058893442153931
vn -0.1261980980634689 -0.6969894766807556 -0.7058893442153931
vn -0.1483983099460602 -0.8193907737731934 -0.5536937117576599
vn -0.1483983099460602 -0.8193907737731934 -0.5536937117576599
vn -0.1660911589860916 -0.9171512126922607 -0.3622807264328003
vn -0.1660911589860916 -0.9171512126922607 -0.3622807264328003
vn -0.1724962294101715 -0.9526792168617249 -0.2502945363521576
vn -0.1724962294101715 -0.9526792168617249 -0.2502945363521576
vn 0.9839944839477539 -0.1781989932060242 0
vn 0.9839944839477539 -0.1781989932060242 0
vn 0.9839944839477539 -0.1781989932060242 0
vn 0.9839944839477539 -0.1781989932060242 0
vn 0.9839944839477539 -0.1781989932060242 0
vn 0.9839944839477539 -0.1781989932060242 0
vn 0.9839944839477539 -0.1781989932060242 0
vn 0.9839944839477539 -0.1781989932060242 0
vn 0.9839944839477539 -0.1781989932060242 0
vn 0.9839944839477539 -0.1781989932060242 0
vn 0.9839944839477539 -0.1781989932060242 0
vn 0.9839944839477539 -0.1781989932060242 0
vn 0.9839944839477539 -0.1781989932060242 0
vn 0.9839944839477539 -0.1781989932060242 0
vn 0.9839944839477539 -0.1781989932060242 0
vn 0.9839944839477539 -0.1781989932060242 0
vn 0.9839944839477539 -0.1781989932060242 0
vn 0.9839944839477539 -0.1781989932060242 0
vn 0.9839944839477539 -0.1781989932060242 0
vn 0.9839944839477539 -0.1781989932060242 0
vn 0.9839944839477539 -0.1781989932060242 0
vn 0.9839944839477539 -0.1781989932060242 0
vn 0.9839944839477539 -0.1781989932060242 0
vn 0.9839944839477539 -0.1781989932060242 0
vn 0.1084969192743301 0.5989829897880554 -0.7933774590492249
vn 0.09900196641683578 0.54691082239151 -0.8313165307044983
vn 0.1340020895004272 0.7400115728378296 -0.6591102480888367
vn 0.1340020895004272 0.7400115728378296 -0.6591102480888367
vn 0.09900196641683578 0.54691082239151 -0.8313165307044983
vn 0.177794948220253 0.981872022151947 0.06569813191890717
vn 0.177794948220253 0.981872022151947 0.06569813191890717
vn 0.1720960289239883 0.9504780769348145 0.2587940394878387
vn 0.1720960289239883 0.9504780769348145 0.2587940394878387
vn -0.0461009219288826 -0.2547050714492798 0.9659192562103271
vn 0 0 1
vn 0 0 1
vn -0.0461009219288826 -0.2547050714492798 0.9659192562103271
vn -0.09900196641683578 -0.54691082239151 0.8313165307044983
vn -0.09900196641683578 -0.54691082239151 0.8313165307044983
vn 0.1542958915233612 0.8521772623062134 0.4999866783618927
vn 0.1542958915233612 0.8521772623062134 0.4999866783618927
vn 0.1259997487068176 0.6957986354827881 0.7070985436439514
vn 0.1259997487068176 0.6957986354827881 0.7070985436439514
vn 0.08910183608531952 0.4920101463794708 0.8660178184509277
vn 0.08910183608531952 0.4920101463794708 0.8660178184509277
vn 0.0461009219288826 0.2547050714492798 0.9659192562103271
vn 0.0461009219288826 0.2547050714492798 0.9659192562103271
vn -0.1542958915233612 -0.8521772623062134 0.4999866783618927
vn -0.1542958915233612 -0.8521772623062134 0.4999866783618927
vn -0.1720960289239883 -0.9504780769348145 0.2587940394878387
vn -0.1720960289239883 -0.9504780769348145 0.2587940394878387
vn -0.177794948220253 -0.981872022151947 0.06569813191890717
vn -0.177794948220253 -0.981872022151947 0.06569813191890717
vn -0.1340020895004272 -0.7400115728378296 0.6591102480888367
vn -0.1340020895004272 -0.7400115728378296 0.6591102480888367
vn 0.1542958915233612 0.8521772623062134 -0.4999866783618927
vn 0.164598748087883 0.9090930819511414 -0.3826970756053925
vn 0.1686986982822418 0.9316927790641785 -0.3216975331306458
vn 0.1542958915233612 0.8521772623062134 -0.4999866783618927
vn 0.164598748087883 0.9090930819511414 -0.3826970756053925
vn 0.1686986982822418 0.9316927790641785 -0.3216975331306458
vn 0.1259997487068176 0.6957986354827881 -0.7070985436439514
vn 0.1259997487068176 0.6957986354827881 -0.7070985436439514
vn 0.1259997487068176 0.6957986354827881 -0.7070985436439514
vn 0.1542958915233612 0.8521772623062134 -0.4999866783618927
vn 0.08910183608531952 0.4920101463794708 -0.8660178184509277
vn 0.08910183608531952 0.4920101463794708 -0.8660178184509277
vn 0.08910183608531952 0.4920101463794708 -0.8660178184509277
vn 0.0461009219288826 0.2547050714492798 -0.9659192562103271
vn 0.0461009219288826 0.2547050714492798 -0.9659192562103271
vn 0.0461009219288826 0.2547050714492798 -0.9659192562103271
vn 0 0 -1
vn 0 0 -1
vn -0.0461009219288826 -0.2547050714492798 -0.9659192562103271
vn -0.0461009219288826 -0.2547050714492798 -0.9659192562103271
vn -0.08910183608531952 -0.4920101463794708 -0.8660178184509277
vn -0.08910183608531952 -0.4920101463794708 -0.8660178184509277
vn -0.1259997487068176 -0.6957986354827881 -0.7070985436439514
vn -0.1259997487068176 -0.6957986354827881 -0.7070985436439514
vn -0.1259997487068176 -0.6957986354827881 -0.7070985436439514
vn -0.08910183608531952 -0.4920101463794708 -0.8660178184509277
vn -0.1542958915233612 -0.8521772623062134 -0.4999866783618927
vn -0.1542958915233612 -0.8521772623062134 -0.4999866783618927
vn -0.1542958915233612 -0.8521772623062134 -0.4999866783618927
vn -0.1748069822788239 -0.9651385545730591 -0.1948077827692032
vn -0.164598748087883 -0.9090930819511414 -0.3826970756053925
vn -0.1748069822788239 -0.9651385545730591 -0.1948077827692032
vn -0.164598748087883 -0.9090930819511414 -0.3826970756053925
vn -0.0461009219288826 -0.2547050714492798 -0.9659192562103271
vn 0 0 -1
vn -0.177794948220253 -0.981872022151947 -0.06569813191890717
vn -0.177794948220253 -0.981872022151947 -0.06569813191890717
vn -0.1686986982822418 -0.9316927790641785 0.3216975331306458
vn -0.1686986982822418 -0.9316927790641785 0.3216975331306458
vn -0.9839944839477539 0.1781989932060242 0
vn -0.9839944839477539 0.1781989932060242 0
vn -0.9839944839477539 0.1781989932060242 0
vn -0.9839944839477539 0.1781989932060242 0
vn -0.9839944839477539 0.1781989932060242 0
vn -0.9839944839477539 0.1781989932060242 0
vn -0.9839944839477539 0.1781989932060242 0
vn -0.9839944839477539 0.1781989932060242 0
vn -0.9839944839477539 0.1781989932060242 0
vn -0.9839944839477539 0.1781989932060242 0
vn -0.9839944839477539 0.1781989932060242 0
vn -0.9839944839477539 0.1781989932060242 0
vn -0.9839944839477539 0.1781989932060242 0
vn -0.9839944839477539 0.1781989932060242 0
vn -0.9839944839477539 0.1781989932060242 0
vn -0.9839944839477539 0.1781989932060242 0
vn -0.9839944839477539 0.1781989932060242 0
vn -0.9839944839477539 0.1781989932060242 0
vn -0.9839944839477539 0.1781989932060242 0
vn -0.9839944839477539 0.1781989932060242 0
vn -0.9839944839477539 0.1781989932060242 0
vn -0.9839944839477539 0.1781989932060242 0
vn -0.9839944839477539 0.1781989932060242 0
vn -0.9839944839477539 0.1781989932060242 0
vn -0.9839944839477539 0.1781989932060242 0
vn -0.9839944839477539 0.1781989932060242 0
vn -0.9839944839477539 0.1781989932060242 0
vn -0.9839944839477539 0.1781989932060242 0
vn -0.9839944839477539 0.1781989932060242 0
vn -0.9839944839477539 0.1781989932060242 0
vn -0.9839944839477539 0.1781989932060242 0
vn -0.9839944839477539 0.1781989932060242 0
vn -0.9839944839477539 0.1781989932060242 0
vn -0.9839944839477539 0.1781989932060242 0
vn -0.9839944839477539 0.1781989932060242 0
vn -0.9839944839477539 0.1781989932060242 0
vn -0.9839944839477539 0.1781989932060242 0
vn -0.9839944839477539 0.1781989932060242 0
vn -0.9839944839477539 0.1781989932060242 0
vn -0.9839944839477539 0.1781989932060242 0
vn -0.9839944839477539 0.1781989932060242 0
vn -0.9839944839477539 0.1781989932060242 0
vn -0.9839944839477539 0.1781989932060242 0
vn -0.9839944839477539 0.1781989932060242 0
vn -0.9839944839477539 0.1781989932060242 0
vn -0.9839944839477539 0.1781989932060242 0
vn -0.9839944839477539 0.1781989932060242 0
vn -0.9839944839477539 0.1781989932060242 0
vn -0.9839944839477539 0.1781989932060242 0
vn -0.9839944839477539 0.1781989932060242 0
vn -0.9839944839477539 0.1781989932060242 0
f 1//1 2//2 3//3 4//4
f 5//5 8//8 7//7 6//6
f 9//9 10//10 8//8 5//5
f 11//11 12//12 10//10 9//9
f 11//11 14//14 13//13 12//12
f 14//14 16//16 15//15 13//13
f 16//16 18//18 17//17 15//15
f 18//18 20//20 19//19 17//17
f 20//20 22//22 21//21 19//19
f 22//22 24//24 23//23 21//21
f 24//24 26//26 25//25 23//23
f 26//26 28//28 27//27 25//25
f 29//29 30//30 27//27 28//28
f 31//31 32//32 30//30 29//29
f 33//33 34//34 32//32 31//31
f 35//35 38//38 37//37 36//36
f 39//39 36//36 37//37 40//40
f 41//41 40//40 37//37 42//42
f 43//43 42//42 37//37 44//44
f 45//45 43//43 44//44 46//46
f 47//47 45//45 46//46 48//48
f 49//49 47//47 48//48 50//50
f 51//51 49//49 50//50 52//52
f 51//51 52//52 53//53
f 54//54 41//41 42//42 55//55
f 56//56 55//55 42//42 57//57
f 57//57 42//42 58//58
f 59//59 62//62 61//61 60//60
f 59//59 60//60 63//63
f 64//64 67//67 66//66 65//65
f 68//68 71//71 70//70 69//69
f 72//72 73//73 71//71 68//68
f 67//67 75//75 74//74 66//66
f 75//75 77//77 76//76 74//74
f 78//78 79//79 76//76 77//77
f 80//80 81//81 79//79 78//78
f 69//69 70//70 81//81 80//80
f 82//82 85//85 84//84 83//83
f 85//85 87//87 86//86 84//84
f 88//88 82//82 83//83 89//89
f 90//90 93//93 92//92 91//91
f 91//91 92//92 95//95 94//94
f 96//96 97//97 93//93 90//90
f 98//98 96//96 90//90 99//99
f 98//98 102//102 101//101 100//100
f 96//96 98//98 100//100 97//97
f 102//102 105//105 104//104 103//103
f 101//101 102//102 103//103 100//100
f 105//105 107//107 106//106 104//104
f 107//107 109//109 108//108 106//106
f 109//109 111//111 110//110 108//108
f 111//111 114//114 113//113 112//112
f 110//110 111//111 112//112 115//115
f 116//116 117//117 112//112 113//113
f 118//118 116//116 113//113 114//114
f 117//117 116//116 120//120 119//119
f 117//117 119//119 121//121
f 119//119 120//120 122//122
f 99//99 90//90 91//91 94//94
f 108//108 110//110 115//115 123//123
f 106//106 108//108 123//123 124//124
f 104//104 106//106 124//124 103//103
f 122//122 120//120 116//116 118//118
f 125//125 128//128 127//127 126//126
f 129//129 132//132 131//131 130//130
f 133//133 129//129 130//130 134//134
f 135//135 133//133 134//134 136//136
f 136//136 134//134 138//138 137//137
f 137//137 138//138 140//140 139//139
f 139//139 140//140 142//142 141//141
f 141//141 142//142 144//144 143//143
f 143//143 144//144 146//146 145//145
f 147//147 145//145 146//146 148//148
f 147//147 148//148 150//150 149//149
f 149//149 150//150 152//152 151//151
f 151//151 152//152 154//154 153//153
f 153//153 154//154 155//155
f 156//156 159//159 158//158 157//157
f 160//160 157//157 158//158 161//161
f 162//162 161//161 158//158 163//163
f 164//164 162//162 163//163 165//165
f 166//166 165//165 163//163 167//167
f 167//167 163//163 168//168
f 163//163 158//158 170//170 169//169
f 169//169 170//170 172//172 171//171
f 171//171 172//172 174//174 173//173
f 173//173 174//174 176//176 175//175
f 175//175 176//176 178//178 177//177
f 177//177 178//178 179//179
